<svg width="403" height="97" viewBox="0 0 403 97" fill="none" xmlns="http://www.w3.org/2000/svg">
<path d="M37.9727 40.918H6.625V69.873H42.7578V75H0.814453V3.90625H42.5625V9.08203H6.625V35.791H37.9727V40.918Z" fill="#254279"/>
<path d="M60.4824 75V22.168H65.8535L66.1953 32.4219C67.0091 30.8919 67.9694 29.4759 69.0762 28.1738C70.1829 26.8717 71.4199 25.7487 72.7871 24.8047C74.3822 23.6979 76.14 22.819 78.0605 22.168C80.0137 21.5169 82.0807 21.1914 84.2617 21.1914C87.1589 21.1914 89.7142 21.6309 91.9277 22.5098C94.1738 23.3887 96.0456 24.6745 97.543 26.3672C99.0729 28.0924 100.229 30.1921 101.01 32.666C101.791 35.14 102.182 37.9557 102.182 41.1133V75H96.3711V41.2109C96.3385 38.8021 96.0456 36.6699 95.4922 34.8145C94.9714 32.959 94.1576 31.3965 93.0508 30.127C91.9115 28.8574 90.4954 27.8971 88.8027 27.2461C87.1426 26.5951 85.1569 26.2858 82.8457 26.3184C80.8275 26.3184 78.9232 26.6764 77.1328 27.3926C75.3424 28.0762 73.7148 29.0039 72.25 30.1758C70.8828 31.2826 69.6947 32.6009 68.6855 34.1309C67.6764 35.6283 66.8952 37.2233 66.3418 38.916V75H60.4824Z" fill="#254279"/>
<path d="M118.881 48.0957C118.881 44.6452 119.288 41.3411 120.102 38.1836C120.915 35.026 122.169 32.194 123.861 29.6875C125.554 27.181 127.719 25.1465 130.355 23.584C133.025 21.9889 136.199 21.1914 139.877 21.1914C141.798 21.1914 143.604 21.4355 145.297 21.9238C147.022 22.3796 148.601 23.0632 150.033 23.9746C151.173 24.6908 152.214 25.5208 153.158 26.4648C154.135 27.4089 154.997 28.4505 155.746 29.5898L155.99 22.168H161.41V74.0723C161.41 77.3275 160.906 80.2897 159.896 82.959C158.92 85.6608 157.52 87.972 155.697 89.8926C153.842 91.8457 151.612 93.3594 149.008 94.4336C146.436 95.5078 143.523 96.0449 140.268 96.0449C138.51 96.0449 136.719 95.8171 134.896 95.3613C133.074 94.9381 131.316 94.2871 129.623 93.4082C128.158 92.6921 126.742 91.7969 125.375 90.7227C124.04 89.681 122.852 88.4603 121.811 87.0605L125.082 83.4473C126.026 84.5866 127.003 85.5957 128.012 86.4746C129.021 87.3535 130.062 88.1022 131.137 88.7207C132.471 89.4694 133.855 90.0391 135.287 90.4297C136.752 90.8529 138.282 91.0645 139.877 91.0645C142.383 91.0645 144.597 90.6576 146.518 89.8438C148.471 89.0299 150.131 87.8906 151.498 86.4258C152.8 84.9609 153.793 83.1869 154.477 81.1035C155.193 79.0527 155.551 76.7741 155.551 74.2676V68.457C154.77 69.5638 153.858 70.5566 152.816 71.4355C151.807 72.2819 150.701 73.0306 149.496 73.6816C148.064 74.4303 146.518 75 144.857 75.3906C143.23 75.7812 141.537 75.9766 139.779 75.9766C136.296 75.9766 133.269 75.2441 130.697 73.7793C128.126 72.3145 125.977 70.3613 124.252 67.9199C122.429 65.446 121.078 62.5651 120.199 59.2773C119.32 55.957 118.881 52.5716 118.881 49.1211V48.0957ZM124.74 49.1211C124.773 51.8229 125.082 54.5247 125.668 57.2266C126.286 59.8958 127.263 62.2396 128.598 64.2578C129.802 66.2435 131.43 67.8385 133.48 69.043C135.531 70.2474 137.989 70.8496 140.854 70.8496C142.514 70.8496 144.092 70.638 145.59 70.2148C147.12 69.7591 148.536 69.1244 149.838 68.3105C151.075 67.4967 152.182 66.5202 153.158 65.3809C154.167 64.209 154.965 62.8906 155.551 61.4258V36.5723C154.965 35.0423 154.2 33.6589 153.256 32.4219C152.312 31.1849 151.221 30.1107 149.984 29.1992C148.747 28.2878 147.364 27.5879 145.834 27.0996C144.337 26.5788 142.709 26.3184 140.951 26.3184C137.859 26.3184 135.271 27.002 133.188 28.3691C131.104 29.7038 129.444 31.4128 128.207 33.4961C126.97 35.5469 126.075 37.8418 125.521 40.3809C125.001 42.9199 124.74 45.4915 124.74 48.0957V49.1211Z" fill="#254279"/>
<path d="M181.967 0H206.576V69.7754H224.447V75H181.967V69.7754H200.766V5.22461H181.967V0Z" fill="#254279"/>
<path d="M242.025 22.168H266.537V69.7754H284.506V75H242.025V69.7754H260.727V27.3926H242.025V22.168ZM259.018 7.71484C259.018 7.09635 259.099 6.51042 259.262 5.95703C259.424 5.40365 259.701 4.91536 260.092 4.49219C260.45 4.10156 260.906 3.80859 261.459 3.61328C262.012 3.38542 262.663 3.27148 263.412 3.27148C264.161 3.27148 264.812 3.38542 265.365 3.61328C265.919 3.80859 266.358 4.10156 266.684 4.49219C267.074 4.88281 267.367 5.35482 267.562 5.9082C267.758 6.46159 267.855 7.0638 267.855 7.71484C267.855 8.88672 267.497 9.89583 266.781 10.7422C266.065 11.5885 264.942 12.0117 263.412 12.0117C261.85 12.0117 260.727 11.5885 260.043 10.7422C259.359 9.89583 259.018 8.88672 259.018 7.71484Z" fill="#254279"/>
<path d="M337.582 61.5234C337.582 59.9935 337.224 58.6589 336.508 57.5195C335.792 56.3477 334.799 55.3548 333.529 54.541C332.13 53.6296 330.421 52.8483 328.402 52.1973C326.417 51.5462 324.366 50.9928 322.25 50.5371C319.548 49.9837 317.074 49.349 314.828 48.6328C312.582 47.9167 310.482 46.9889 308.529 45.8496C306.706 44.7754 305.225 43.4082 304.086 41.748C302.979 40.0553 302.426 38.0046 302.426 35.5957C302.426 33.3171 302.979 31.2826 304.086 29.4922C305.225 27.7018 306.739 26.1719 308.627 24.9023C310.417 23.7305 312.501 22.819 314.877 22.168C317.286 21.5169 319.76 21.1914 322.299 21.1914C325.131 21.1914 327.784 21.5495 330.258 22.2656C332.764 22.9492 334.962 23.9583 336.85 25.293C338.705 26.6602 340.186 28.3203 341.293 30.2734C342.4 32.2266 343.002 34.4564 343.1 36.9629H337.24C337.208 35.2702 336.752 33.7565 335.873 32.4219C335.027 31.0872 333.92 29.9642 332.553 29.0527C331.153 28.1413 329.558 27.4414 327.768 26.9531C326.01 26.4648 324.187 26.2207 322.299 26.2207C320.508 26.2207 318.767 26.416 317.074 26.8066C315.414 27.1647 313.933 27.7344 312.631 28.5156C311.296 29.2643 310.222 30.2246 309.408 31.3965C308.627 32.5358 308.236 33.8704 308.236 35.4004C308.236 36.9303 308.578 38.265 309.262 39.4043C309.978 40.5111 311.02 41.4551 312.387 42.2363C313.754 43.0501 315.398 43.7337 317.318 44.2871C319.239 44.8079 321.241 45.2799 323.324 45.7031C325.993 46.2565 328.533 46.9401 330.941 47.7539C333.383 48.5352 335.531 49.5117 337.387 50.6836C339.242 51.888 340.707 53.3529 341.781 55.0781C342.855 56.7708 343.393 58.8216 343.393 61.2305C343.393 63.5091 342.872 65.5436 341.83 67.334C340.788 69.1244 339.438 70.6055 337.777 71.7773C335.759 73.2096 333.415 74.2676 330.746 74.9512C328.077 75.6348 325.375 75.9766 322.641 75.9766C319.646 75.9766 316.814 75.6022 314.145 74.8535C311.475 74.1048 309.164 73.0469 307.211 71.6797C305.193 70.3451 303.598 68.7012 302.426 66.748C301.286 64.7949 300.668 62.5977 300.57 60.1562H306.381C306.576 62.2396 307.195 63.9811 308.236 65.3809C309.311 66.7806 310.629 67.8874 312.191 68.7012C313.689 69.5475 315.349 70.1497 317.172 70.5078C319.027 70.8333 320.85 70.9961 322.641 70.9961C324.952 70.9961 327.133 70.7194 329.184 70.166C331.234 69.5801 333.008 68.7174 334.506 67.5781C335.482 66.7969 336.231 65.918 336.752 64.9414C337.305 63.9323 337.582 62.793 337.582 61.5234Z" fill="#254279"/>
<path d="M366.635 32.4707C367.416 30.9733 368.344 29.5898 369.418 28.3203C370.525 27.0182 371.745 25.8789 373.08 24.9023C374.708 23.7305 376.482 22.819 378.402 22.168C380.355 21.5169 382.439 21.1914 384.652 21.1914C387.549 21.1914 390.121 21.6471 392.367 22.5586C394.613 23.4375 396.485 24.7233 397.982 26.416C399.512 28.1413 400.668 30.2572 401.449 32.7637C402.23 35.2702 402.621 38.1022 402.621 41.2598V75H396.811V41.2109C396.778 38.9323 396.501 36.8815 395.98 35.0586C395.46 33.2031 394.662 31.6406 393.588 30.3711C392.449 29.0365 391.016 28.0273 389.291 27.3438C387.598 26.6276 385.596 26.2858 383.285 26.3184C381.267 26.3184 379.346 26.6602 377.523 27.3438C375.733 28.0273 374.089 28.9714 372.592 30.1758C371.225 31.25 370.036 32.5195 369.027 33.9844C368.018 35.4492 367.221 37.0117 366.635 38.6719V75H360.824V0H366.635V32.4707Z" fill="#254279"/>
<path d="M38.3867 39.7461H5.33008V72.3633H43.0254V75H2.74219V3.90625H43.0254V6.54297H5.33008V37.1094H38.3867V39.7461Z" fill="white"/>
<path d="M62.4102 75V22.168H65.0957V34.8633C65.9421 32.9102 67 31.1035 68.2695 29.4434C69.5716 27.7507 71.069 26.3021 72.7617 25.0977C74.4219 23.8932 76.2611 22.9492 78.2793 22.2656C80.2975 21.5495 82.4622 21.1914 84.7734 21.1914C87.8008 21.1914 90.4049 21.6797 92.5859 22.6562C94.7995 23.6328 96.6224 24.9837 98.0547 26.709C99.487 28.4668 100.545 30.5501 101.229 32.959C101.945 35.3678 102.303 37.9883 102.303 40.8203L102.352 75H99.666V40.8203C99.6335 38.3464 99.3242 36.0677 98.7383 33.9844C98.1849 31.8685 97.306 30.0456 96.1016 28.5156C94.8971 27.0182 93.3509 25.8464 91.4629 25C89.5749 24.1536 87.2962 23.7467 84.627 23.7793C82.2506 23.8118 79.9883 24.2839 77.8398 25.1953C75.6914 26.1068 73.7546 27.3275 72.0293 28.8574C70.304 30.3874 68.8392 32.1777 67.6348 34.2285C66.4303 36.2793 65.584 38.444 65.0957 40.7227V75H62.4102Z" fill="white"/>
<path d="M120.809 48.0469C120.809 45.0846 121.134 42.1061 121.785 39.1113C122.469 36.084 123.576 33.252 125.105 30.6152C126.701 27.946 128.849 25.7161 131.551 23.9258C134.253 22.1029 137.638 21.1914 141.707 21.1914C143.4 21.1914 145.06 21.4355 146.688 21.9238C148.348 22.3796 149.91 23.0469 151.375 23.9258C152.84 24.8047 154.191 25.8626 155.428 27.0996C156.665 28.3366 157.723 29.7038 158.602 31.2012V22.168H161.287V74.2676C161.287 77.2949 160.831 80.1432 159.92 82.8125C159.041 85.4818 157.755 87.8092 156.062 89.7949C154.37 91.8131 152.286 93.3919 149.812 94.5312C147.371 95.7031 144.539 96.2891 141.316 96.2891C139.233 96.2891 137.247 95.9961 135.359 95.4102C133.471 94.8568 131.714 94.0592 130.086 93.0176C128.979 92.3014 127.905 91.4714 126.863 90.5273C125.854 89.5833 124.91 88.5417 124.031 87.4023L125.887 85.6445C126.668 86.5885 127.482 87.4674 128.328 88.2812C129.207 89.1276 130.118 89.8763 131.062 90.5273C132.495 91.5039 134.057 92.2689 135.75 92.8223C137.443 93.4082 139.266 93.7012 141.219 93.7012C144.083 93.7012 146.59 93.1966 148.738 92.1875C150.919 91.1784 152.742 89.7949 154.207 88.0371C155.639 86.2793 156.714 84.2122 157.43 81.8359C158.178 79.4922 158.569 76.9694 158.602 74.2676V67.1875C157.69 68.5872 156.583 69.8405 155.281 70.9473C154.012 72.0215 152.628 72.9329 151.131 73.6816C149.633 74.4303 148.071 75 146.443 75.3906C144.816 75.7812 143.204 75.9766 141.609 75.9766C137.866 75.9766 134.725 75.1953 132.186 73.6328C129.646 72.0703 127.531 70.0684 125.838 67.627C124.048 65.0553 122.762 62.1094 121.98 58.7891C121.199 55.4688 120.809 52.2298 120.809 49.0723V48.0469ZM123.494 49.0723C123.559 51.9043 123.917 54.8503 124.568 57.9102C125.252 60.9375 126.342 63.6068 127.84 65.918C129.142 68.099 130.949 69.8893 133.26 71.2891C135.571 72.6562 138.338 73.3398 141.561 73.3398C143.318 73.3398 145.076 73.0957 146.834 72.6074C148.592 72.1191 150.252 71.403 151.814 70.459C153.344 69.515 154.695 68.3594 155.867 66.9922C157.072 65.5924 157.983 63.9974 158.602 62.207V36.7676C158.016 34.847 157.169 33.1055 156.062 31.543C154.956 29.9479 153.67 28.5807 152.205 27.4414C150.708 26.3021 149.064 25.4232 147.273 24.8047C145.483 24.1536 143.611 23.8281 141.658 23.8281C138.012 23.8281 135.001 24.6582 132.625 26.3184C130.281 27.9785 128.442 30.013 127.107 32.4219C125.805 34.7005 124.878 37.2233 124.324 39.9902C123.771 42.7572 123.494 45.4427 123.494 48.0469V49.0723Z" fill="white"/>
<path d="M183.846 0H206.062V72.3633H224.617V75H183.846V72.3633H203.426V2.63672H183.846V0Z" fill="white"/>
<path d="M243.904 22.168H265.926V72.3633H284.676V75H243.904V72.3633H263.289V24.8047H243.904V22.168ZM261.043 7.12891C261.043 6.67318 261.092 6.23372 261.189 5.81055C261.287 5.35482 261.466 4.94792 261.727 4.58984C261.987 4.26432 262.329 4.00391 262.752 3.80859C263.208 3.61328 263.777 3.51562 264.461 3.51562C265.112 3.51562 265.649 3.61328 266.072 3.80859C266.528 4.00391 266.902 4.26432 267.195 4.58984C267.456 4.94792 267.635 5.35482 267.732 5.81055C267.863 6.23372 267.928 6.67318 267.928 7.12891C267.928 8.00781 267.667 8.80534 267.146 9.52148C266.658 10.2376 265.763 10.5957 264.461 10.5957C263.126 10.5957 262.215 10.2376 261.727 9.52148C261.271 8.80534 261.043 8.00781 261.043 7.12891Z" fill="white"/>
<path d="M341.268 62.0605C341.268 60.0749 340.747 58.3659 339.705 56.9336C338.696 55.5013 337.426 54.3132 335.896 53.3691C334.106 52.2624 332.055 51.3672 329.744 50.6836C327.433 49.9674 325.366 49.4141 323.543 49.0234C321.199 48.5352 319.018 48.0143 317 47.4609C314.982 46.9076 312.898 46.0938 310.75 45.0195C308.895 44.0755 307.332 42.7572 306.062 41.0645C304.793 39.3392 304.158 37.1582 304.158 34.5215C304.158 32.1126 304.777 30.0618 306.014 28.3691C307.251 26.6439 308.862 25.2279 310.848 24.1211C312.605 23.1445 314.607 22.4121 316.854 21.9238C319.132 21.4355 321.281 21.1914 323.299 21.1914C325.773 21.1914 328.198 21.4681 330.574 22.0215C332.951 22.5749 335.099 23.4538 337.02 24.6582C338.908 25.8626 340.47 27.4251 341.707 29.3457C342.944 31.2337 343.66 33.5449 343.855 36.2793H341.121C341.056 34.0332 340.454 32.1289 339.314 30.5664C338.175 28.9714 336.743 27.6693 335.018 26.6602C333.26 25.6836 331.339 24.9674 329.256 24.5117C327.205 24.056 325.219 23.8281 323.299 23.8281C321.671 23.8281 319.897 24.0072 317.977 24.3652C316.089 24.6908 314.314 25.2604 312.654 26.0742C310.994 26.888 309.594 27.9785 308.455 29.3457C307.348 30.6803 306.795 32.373 306.795 34.4238C306.795 36.4421 307.299 38.1673 308.309 39.5996C309.35 41.0319 310.75 42.1875 312.508 43.0664C314.298 44.043 316.284 44.8079 318.465 45.3613C320.678 45.9147 322.648 46.3704 324.373 46.7285C326.456 47.1842 328.637 47.7539 330.916 48.4375C333.227 49.1211 335.359 50.0326 337.312 51.1719C339.233 52.3112 340.812 53.7598 342.049 55.5176C343.286 57.2754 343.904 59.4727 343.904 62.1094C343.904 64.3229 343.383 66.2598 342.342 67.9199C341.333 69.5475 340.112 70.8659 338.68 71.875C336.531 73.3724 334.106 74.4303 331.404 75.0488C328.702 75.6673 326.147 75.9766 323.738 75.9766C321.329 75.9766 318.855 75.6999 316.316 75.1465C313.81 74.5931 311.548 73.763 309.529 72.6562C307.479 71.5169 305.802 70.0358 304.5 68.2129C303.198 66.39 302.449 64.1764 302.254 61.5723H304.939C305.2 63.8835 305.949 65.804 307.186 67.334C308.455 68.8314 309.985 70.0195 311.775 70.8984C313.533 71.8099 315.47 72.4447 317.586 72.8027C319.702 73.1608 321.753 73.3398 323.738 73.3398C325.984 73.3398 328.263 73.0631 330.574 72.5098C332.885 71.9238 335.018 70.9961 336.971 69.7266C338.305 68.7826 339.347 67.6921 340.096 66.4551C340.877 65.1855 341.268 63.7207 341.268 62.0605Z" fill="white"/>
<path d="M365.438 34.9121C366.284 32.959 367.358 31.1523 368.66 29.4922C369.962 27.7995 371.46 26.3346 373.152 25.0977C374.812 23.8932 376.652 22.9492 378.67 22.2656C380.688 21.5495 382.853 21.1914 385.164 21.1914C388.191 21.1914 390.812 21.6797 393.025 22.6562C395.239 23.6328 397.062 24.9837 398.494 26.709C399.926 28.4668 400.984 30.5501 401.668 32.959C402.384 35.3678 402.758 37.9883 402.791 40.8203V75H400.105V40.8203C400.073 38.3464 399.764 36.0677 399.178 33.9844C398.624 31.8685 397.745 30.0456 396.541 28.5156C395.304 27.0182 393.742 25.8464 391.854 25C389.965 24.1536 387.687 23.7467 385.018 23.7793C382.641 23.8118 380.379 24.2839 378.23 25.1953C376.082 26.1068 374.145 27.3275 372.42 28.8574C370.662 30.3874 369.181 32.1777 367.977 34.2285C366.772 36.2793 365.926 38.444 365.438 40.7227V75H362.752V0H365.438V34.9121Z" fill="white"/>
</svg>
