<svg width="168" height="76" viewBox="0 0 168 76" fill="none" xmlns="http://www.w3.org/2000/svg">
<path d="M40.1406 55.1758H13.1387L6.83984 75H0.980469L24.0762 3.90625H29.3496L52.2988 75H46.4395L40.1406 55.1758ZM14.7988 49.9512H38.5293L26.7129 12.6953L14.7988 49.9512Z" fill="#254279"/>
<path d="M108.402 49.1211C108.37 51.3021 108.191 53.4668 107.865 55.6152C107.54 57.7311 107.035 59.7493 106.352 61.6699C105.57 63.8835 104.545 65.918 103.275 67.7734C102.038 69.5964 100.557 71.1589 98.832 72.4609C97.3021 73.5352 95.6094 74.3815 93.7539 75C91.8984 75.651 89.8477 75.9766 87.6016 75.9766C85.6484 75.9766 83.793 75.7324 82.0352 75.2441C80.3099 74.7884 78.6986 74.1211 77.2012 73.2422C76.0619 72.5911 75.0039 71.8424 74.0273 70.9961C73.0833 70.1172 72.237 69.1406 71.4883 68.0664L71.2441 75H65.8242V0H71.6348V29.4922C72.4486 28.2878 73.3926 27.181 74.4668 26.1719C75.541 25.1628 76.6966 24.3001 77.9336 23.584C79.3333 22.8353 80.8307 22.2493 82.4258 21.8262C84.0208 21.403 85.7135 21.1914 87.5039 21.1914C89.9128 21.1914 92.11 21.5332 94.0957 22.2168C96.0814 22.9004 97.8392 23.8444 99.3691 25.0488C100.834 26.2207 102.12 27.6204 103.227 29.248C104.333 30.8431 105.277 32.6009 106.059 34.5215C106.84 36.5397 107.41 38.7044 107.768 41.0156C108.158 43.3268 108.37 45.6868 108.402 48.0957V49.1211ZM102.543 48.0957C102.51 46.3704 102.38 44.6452 102.152 42.9199C101.924 41.1621 101.566 39.4857 101.078 37.8906C100.492 36.1328 99.7272 34.5052 98.7832 33.0078C97.8717 31.4779 96.7324 30.2083 95.3652 29.1992C94.2259 28.3203 92.9076 27.6204 91.4102 27.0996C89.9453 26.5788 88.2852 26.3184 86.4297 26.3184C84.6393 26.3184 82.9629 26.5788 81.4004 27.0996C79.8704 27.6204 78.487 28.3366 77.25 29.248C75.9805 30.1921 74.8574 31.3151 73.8809 32.6172C72.9369 33.8867 72.1881 35.2865 71.6348 36.8164V61.1816C72.2207 62.679 73.0182 64.0299 74.0273 65.2344C75.0365 66.4062 76.1921 67.4154 77.4941 68.2617C78.7637 69.1081 80.1634 69.7591 81.6934 70.2148C83.2559 70.638 84.8672 70.8496 86.5273 70.8496C88.4154 70.8496 90.1081 70.5892 91.6055 70.0684C93.1354 69.515 94.4701 68.75 95.6094 67.7734C96.9115 66.7318 98.0182 65.4622 98.9297 63.9648C99.8411 62.4674 100.574 60.8398 101.127 59.082C101.615 57.5195 101.957 55.8919 102.152 54.1992C102.38 52.5065 102.51 50.8138 102.543 49.1211V48.0957Z" fill="#254279"/>
<path d="M146.977 70.9961C148.93 70.9961 150.785 70.7194 152.543 70.166C154.333 69.5801 155.928 68.75 157.328 67.6758C158.695 66.6016 159.802 65.3158 160.648 63.8184C161.495 62.2884 161.999 60.5794 162.162 58.6914H167.729C167.566 61.1654 166.898 63.4603 165.727 65.5762C164.587 67.6921 163.074 69.515 161.186 71.0449C159.298 72.6074 157.133 73.8281 154.691 74.707C152.25 75.5534 149.678 75.9766 146.977 75.9766C143.135 75.9766 139.783 75.2441 136.918 73.7793C134.053 72.3145 131.661 70.3451 129.74 67.8711C127.82 65.4622 126.387 62.679 125.443 59.5215C124.499 56.3314 124.011 53.0273 123.979 49.6094V47.5586C124.011 44.1732 124.499 40.8854 125.443 37.6953C126.387 34.5052 127.82 31.6895 129.74 29.248C131.628 26.8066 134.005 24.8535 136.869 23.3887C139.734 21.9238 143.087 21.1914 146.928 21.1914C149.89 21.1914 152.608 21.6634 155.082 22.6074C157.589 23.5189 159.753 24.8047 161.576 26.4648C163.399 28.125 164.848 30.1107 165.922 32.4219C166.996 34.7331 167.598 37.2396 167.729 39.9414H162.162C162.032 37.9557 161.56 36.1328 160.746 34.4727C159.965 32.7799 158.907 31.3151 157.572 30.0781C156.205 28.8737 154.61 27.9297 152.787 27.2461C150.997 26.5625 149.044 26.2207 146.928 26.2207C143.868 26.2207 141.247 26.8392 139.066 28.0762C136.918 29.3132 135.16 30.9245 133.793 32.9102C132.426 34.9609 131.417 37.2559 130.766 39.7949C130.147 42.334 129.838 44.9219 129.838 47.5586V49.6094C129.838 52.2786 130.147 54.8991 130.766 57.4707C131.417 60.0098 132.426 62.2721 133.793 64.2578C135.16 66.276 136.918 67.9036 139.066 69.1406C141.247 70.3776 143.884 70.9961 146.977 70.9961Z" fill="#254279"/>
<path d="M42.6738 53.7598H12.4492L5.51562 75H2.78125L26.0723 3.90625H29.0996L52.3906 75H49.6562L42.6738 53.7598ZM13.2793 51.123H41.8438L27.5859 7.51953L13.2793 51.123Z" fill="white"/>
<path d="M108.299 49.0723C108.266 51.123 108.087 53.2227 107.762 55.3711C107.436 57.487 106.932 59.5378 106.248 61.5234C105.564 63.5091 104.669 65.3809 103.562 67.1387C102.488 68.8965 101.186 70.4264 99.6562 71.7285C98.0938 73.0306 96.3034 74.0723 94.2852 74.8535C92.2995 75.6022 90.0371 75.9766 87.498 75.9766C85.903 75.9766 84.2917 75.7812 82.6641 75.3906C81.0365 75 79.474 74.4303 77.9766 73.6816C76.4466 72.9329 75.0306 72.0215 73.7285 70.9473C72.459 69.8405 71.3685 68.5872 70.457 67.1875V75H67.8203V0H70.457V31.1523C71.3359 29.6549 72.3939 28.2878 73.6309 27.0508C74.8678 25.8138 76.2188 24.7559 77.6836 23.877C79.1484 23.0306 80.6947 22.3796 82.3223 21.9238C83.9824 21.4355 85.6751 21.1914 87.4004 21.1914C89.972 21.1914 92.2669 21.5658 94.2852 22.3145C96.3359 23.0632 98.1263 24.0723 99.6562 25.3418C101.186 26.6439 102.488 28.1738 103.562 29.9316C104.669 31.6895 105.581 33.5612 106.297 35.5469C106.98 37.5326 107.469 39.5996 107.762 41.748C108.087 43.8639 108.266 45.9635 108.299 48.0469V49.0723ZM105.564 48.0469C105.532 46.2565 105.385 44.4173 105.125 42.5293C104.865 40.6087 104.458 38.7533 103.904 36.9629C103.318 35.1725 102.57 33.4798 101.658 31.8848C100.747 30.2897 99.6237 28.89 98.2891 27.6855C96.9219 26.5137 95.3431 25.5859 93.5527 24.9023C91.7949 24.1862 89.7604 23.8281 87.4492 23.8281C85.4961 23.8281 83.6244 24.1374 81.834 24.7559C80.0436 25.3743 78.416 26.2533 76.9512 27.3926C75.4538 28.5319 74.1354 29.8991 72.9961 31.4941C71.8893 33.0566 71.043 34.7819 70.457 36.6699V62.2559C71.0755 64.0462 71.987 65.6413 73.1914 67.041C74.4284 68.4082 75.8119 69.5638 77.3418 70.5078C78.8717 71.4518 80.5156 72.168 82.2734 72.6562C84.0312 73.112 85.7891 73.3398 87.5469 73.3398C89.8255 73.3398 91.86 72.998 93.6504 72.3145C95.4408 71.5983 97.0033 70.638 98.3379 69.4336C99.64 68.2292 100.747 66.8294 101.658 65.2344C102.602 63.6393 103.367 61.9466 103.953 60.1562C104.507 58.3659 104.897 56.5267 105.125 54.6387C105.385 52.7507 105.532 50.8952 105.564 49.0723V48.0469Z" fill="white"/>
<path d="M147.703 73.3398C149.949 73.3398 152.065 73.0306 154.051 72.4121C156.069 71.7936 157.859 70.8659 159.422 69.6289C160.952 68.4245 162.205 66.9271 163.182 65.1367C164.158 63.3464 164.777 61.2956 165.037 58.9844H167.674C167.413 61.6211 166.714 63.9974 165.574 66.1133C164.435 68.1966 162.986 69.9707 161.229 71.4355C159.438 72.9004 157.371 74.0234 155.027 74.8047C152.716 75.5859 150.275 75.9766 147.703 75.9766C143.992 75.9766 140.753 75.2279 137.986 73.7305C135.252 72.2331 132.973 70.2474 131.15 67.7734C129.327 65.332 127.96 62.5326 127.049 59.375C126.17 56.2174 125.714 52.9622 125.682 49.6094V47.5586C125.714 44.2383 126.17 40.9993 127.049 37.8418C127.96 34.6517 129.327 31.8197 131.15 29.3457C132.941 26.9043 135.203 24.9349 137.938 23.4375C140.672 21.9401 143.895 21.1914 147.605 21.1914C150.372 21.1914 152.928 21.6309 155.271 22.5098C157.648 23.3887 159.715 24.6257 161.473 26.2207C163.23 27.8483 164.646 29.8014 165.721 32.0801C166.795 34.3262 167.446 36.8327 167.674 39.5996H165.037C164.842 37.2233 164.272 35.0749 163.328 33.1543C162.384 31.2012 161.147 29.5247 159.617 28.125C158.055 26.7578 156.248 25.6999 154.197 24.9512C152.179 24.2025 149.982 23.8281 147.605 23.8281C144.253 23.8281 141.372 24.5117 138.963 25.8789C136.554 27.2135 134.568 28.9876 133.006 31.2012C131.411 33.4473 130.239 36.0026 129.49 38.8672C128.742 41.6992 128.351 44.5964 128.318 47.5586V49.6094C128.351 52.6367 128.742 55.5664 129.49 58.3984C130.239 61.2305 131.411 63.7533 133.006 65.9668C134.568 68.1803 136.554 69.9707 138.963 71.3379C141.404 72.6725 144.318 73.3398 147.703 73.3398Z" fill="white"/>
</svg>
